<?xml version="1.0" encoding="UTF-8" ?>
<!DOCTYPE svg PUBLIC "-//W3C//DTD SVG 1.1//EN" "http://www.w3.org/Graphics/SVG/1.1/DTD/svg11.dtd">
<svg width="128pt" height="128pt" viewBox="0 0 128 128" version="1.1" xmlns="http://www.w3.org/2000/svg">
<path fill="#ffffff" d=" M 0.00 0.00 L 128.00 0.00 L 128.00 128.00 L 0.00 128.00 L 0.00 0.00 Z" />
<path fill="#343434" d=" M 63.17 6.20 C 65.82 5.64 68.09 7.62 69.08 9.92 C 74.25 20.38 79.39 30.85 84.56 41.31 C 96.06 42.99 107.57 44.65 119.07 46.32 C 121.44 46.56 124.18 47.68 124.68 50.30 C 125.41 52.87 123.41 54.99 121.73 56.64 C 113.55 64.54 105.44 72.51 97.29 80.43 C 99.24 92.03 101.30 103.60 103.24 115.20 C 103.80 117.58 103.10 120.64 100.60 121.58 C 98.53 122.72 96.29 121.63 94.42 120.65 C 84.29 115.29 74.14 109.96 64.00 104.63 C 53.63 110.06 43.28 115.55 32.91 120.98 C 30.84 122.18 27.98 122.65 26.13 120.80 C 24.22 119.10 24.49 116.35 24.92 114.10 C 26.87 102.88 28.79 91.66 30.72 80.45 C 22.59 72.53 14.49 64.58 6.33 56.69 C 4.60 55.02 2.53 52.83 3.35 50.20 C 3.90 47.63 6.60 46.57 8.93 46.31 C 20.43 44.65 31.92 42.99 43.41 41.31 C 48.47 31.07 53.54 20.83 58.58 10.58 C 59.52 8.66 60.81 6.46 63.17 6.20 Z" />
<path fill="#ffffff" d=" M 48.69 55.16 C 48.09 52.18 48.35 49.16 49.44 46.33 C 52.37 47.06 55.09 48.38 57.71 49.88 C 62.79 48.98 67.95 49.30 73.07 49.59 C 75.94 48.42 78.63 46.63 81.82 46.41 C 82.39 49.07 82.54 51.80 82.35 54.52 C 86.68 59.85 86.94 67.67 83.52 73.51 C 80.97 77.42 75.97 78.32 71.70 79.01 C 76.84 83.82 70.96 92.23 76.72 96.57 C 74.90 96.22 72.24 96.59 71.34 94.52 C 70.45 90.68 71.72 86.52 69.97 82.84 C 69.75 88.02 68.90 93.56 71.52 98.31 C 69.80 97.50 67.33 97.04 66.86 94.85 C 65.96 90.79 66.79 86.58 66.15 82.47 C 64.44 86.63 66.31 91.40 64.74 95.62 C 64.05 97.35 62.04 97.61 60.56 98.32 C 62.66 93.46 61.91 88.00 61.64 82.88 C 60.25 86.74 61.31 90.91 60.58 94.87 C 59.08 96.31 56.95 96.44 54.99 96.43 C 55.67 95.81 57.03 94.58 57.71 93.97 C 57.77 91.77 57.87 89.57 57.85 87.36 C 55.13 87.21 51.67 87.91 49.75 85.44 C 47.95 82.70 46.20 79.90 43.69 77.74 C 47.69 77.10 49.51 80.87 52.06 83.07 C 53.81 83.64 55.69 83.33 57.49 83.34 C 58.36 81.89 59.26 80.46 60.19 79.05 C 54.99 78.36 49.21 76.36 46.89 71.22 C 44.79 66.04 44.73 59.48 48.69 55.16 Z" />
</svg>
